<?xml version="1.0" encoding="utf-8"?>
<!-- Generator: Adobe Illustrator 28.0.0, SVG Export Plug-In . SVG Version: 6.00 Build 0)  -->
<svg version="1.1" id="Layer_1" xmlns="http://www.w3.org/2000/svg" xmlns:xlink="http://www.w3.org/1999/xlink" x="0px" y="0px"
	 viewBox="0 0 250 250" style="enable-background:new 0 0 250 250;" xml:space="preserve">
<style type="text/css">
	.st0{fill:#ED0C0C;}
	.st1{fill:#00A450;}
	.st2{fill:#2BAE43;}
	.st3{fill:#55B835;}
	.st4{fill:#80C228;}
	.st5{fill:#AACB1B;}
	.st6{fill:#D4D50D;}
	.st7{fill:#FFDF00;}
</style>
<rect class="st0" width="250" height="243"/>
<g>
	
		<ellipse transform="matrix(0.4226 -0.9063 0.9063 0.4226 18.4174 239.9096)" class="st1" cx="197.5" cy="105.5" rx="78.5" ry="20.5"/>
	
		<ellipse transform="matrix(0.2969 -0.9549 0.9549 0.2969 20.623 239.3409)" class="st2" cx="172.8" cy="105.7" rx="74.5" ry="19.5"/>
	<ellipse transform="matrix(0.1536 -0.9881 0.9881 0.1536 20.832 235.9868)" class="st3" cx="148.2" cy="105.8" rx="72" ry="18.8"/>
	<ellipse class="st4" cx="123.5" cy="106" rx="18.6" ry="71.1"/>
	<ellipse transform="matrix(0.9881 -0.1536 0.1536 0.9881 -15.1336 16.4397)" class="st5" cx="98.8" cy="106.2" rx="18.8" ry="72"/>
	
		<ellipse transform="matrix(0.9549 -0.2969 0.2969 0.9549 -28.2226 26.8103)" class="st6" cx="74.2" cy="106.3" rx="19.5" ry="74.5"/>
	
		<ellipse transform="matrix(0.9063 -0.4226 0.4226 0.9063 -40.3711 30.8978)" class="st7" cx="49.5" cy="106.5" rx="20.5" ry="78.5"/>
</g>
<g>
	<path d="M50.2,215.6l-5.3-15.8c-0.1-0.4,0-0.7,0.5-0.7h2.3c0.3,0,0.6,0.2,0.7,0.5l3.7,12l3.6-12c0.1-0.4,0.3-0.5,0.7-0.5h2.3
		c0.3,0,0.6,0.1,0.7,0.5l3.6,12l3.7-12c0.1-0.3,0.3-0.5,0.7-0.5h2.3c0.4,0,0.6,0.2,0.5,0.7l-5.3,15.8c-0.1,0.3-0.4,0.5-0.7,0.5h-2.4
		c-0.3,0-0.6-0.1-0.7-0.5l-3.5-11.8l-3.5,11.8c-0.1,0.4-0.3,0.5-0.7,0.5h-2.4C50.6,216.1,50.3,215.9,50.2,215.6z"/>
	<path d="M70.5,210.8v-2.9c0-3.3,1.1-5.3,5-5.3h4c3.9,0,5,1.9,5,5.3v2.9c0,3.4-1.1,5.3-5,5.3h-4C71.6,216.1,70.5,214.2,70.5,210.8z
		 M79.3,213.1c1.4,0,1.9-0.4,1.9-2v-3.5c0-1.6-0.4-2-1.9-2h-3.8c-1.5,0-1.9,0.4-1.9,2v3.5c0,1.7,0.4,2,1.9,2H79.3z"/>
	<path d="M95.3,202.6c0.4,0,0.6,0.2,0.6,0.6v1.8c0,0.4-0.2,0.6-0.6,0.6h-3.5c-1.3,0-1.9,0.3-1.9,2v7.9c0,0.4-0.2,0.6-0.6,0.6h-2
		c-0.4,0-0.6-0.2-0.6-0.6v-12.3c0-0.4,0.2-0.6,0.6-0.6h2c0.4,0,0.6,0.2,0.6,0.6v1c0.6-1,1.6-1.6,3.5-1.6H95.3z"/>
	<path d="M97.5,215.5v-17c0-0.4,0.2-0.6,0.6-0.6h2c0.4,0,0.6,0.2,0.6,0.6v17c0,0.4-0.2,0.6-0.6,0.6h-2
		C97.7,216.1,97.5,215.9,97.5,215.5z"/>
	<path d="M114.5,197.9h2c0.4,0,0.6,0.2,0.6,0.6v17c0,0.4-0.2,0.6-0.6,0.6h-2c-0.4,0-0.6-0.2-0.6-0.6v-0.9c-0.6,1-1.6,1.5-3.5,1.5
		h-2.3c-3.9,0-5-1.9-5-5.3v-2.9c0-3.4,1.1-5.3,5-5.3h2.3c1.8,0,2.9,0.5,3.5,1.5v-5.7C113.9,198.1,114.1,197.9,114.5,197.9z
		 M113.9,211.1v-3.5c0-1.7-0.6-2-1.9-2h-3.8c-1.4,0-1.9,0.4-1.9,2v3.5c0,1.6,0.4,2,1.9,2h3.8C113.3,213.1,113.9,212.8,113.9,211.1z"
		/>
	<path d="M141,216.1h-2.8c-0.3,0-0.5-0.1-0.7-0.4l-4.5-5.9l-4.5,5.9c-0.2,0.2-0.4,0.4-0.7,0.4h-2.8c-0.5,0-0.7-0.4-0.4-0.7l6.3-8
		l-5.8-7.4c-0.3-0.4-0.1-0.7,0.4-0.7h2.8c0.3,0,0.5,0.1,0.7,0.4l4,5.2l4-5.2c0.2-0.2,0.4-0.4,0.7-0.4h2.8c0.5,0,0.7,0.4,0.4,0.7
		l-5.8,7.4l6.3,8C141.7,215.7,141.5,216.1,141,216.1z"/>
	<path d="M156.4,207.9v2.9c0,3.4-1.1,5.3-5,5.3h-2.3c-1.8,0-2.9-0.5-3.5-1.5v5.7c0,0.4-0.2,0.6-0.6,0.6h-2c-0.4,0-0.6-0.2-0.6-0.6
		v-17c0-0.4,0.2-0.6,0.6-0.6h2c0.4,0,0.6,0.2,0.6,0.6v0.9c0.6-1,1.6-1.5,3.5-1.5h2.3C155.3,202.6,156.4,204.5,156.4,207.9z
		 M153.3,207.6c0-1.6-0.4-2-1.9-2h-3.8c-1.3,0-1.9,0.3-1.9,2v3.5c0,1.7,0.6,2,1.9,2h3.8c1.4,0,1.9-0.4,1.9-2V207.6z"/>
	<path d="M158.9,215.5v-17c0-0.4,0.2-0.6,0.6-0.6h2c0.4,0,0.6,0.2,0.6,0.6v17c0,0.4-0.2,0.6-0.6,0.6h-2
		C159.1,216.1,158.9,215.9,158.9,215.5z"/>
	<path d="M164.5,210.8v-2.9c0-3.3,1.1-5.3,5-5.3h4c3.9,0,5,1.9,5,5.3v2.9c0,3.4-1.1,5.3-5,5.3h-4
		C165.6,216.1,164.5,214.2,164.5,210.8z M173.4,213.1c1.4,0,1.9-0.4,1.9-2v-3.5c0-1.6-0.4-2-1.9-2h-3.8c-1.5,0-1.9,0.4-1.9,2v3.5
		c0,1.7,0.4,2,1.9,2H173.4z"/>
	<path d="M189.4,202.6c0.4,0,0.6,0.2,0.6,0.6v1.8c0,0.4-0.2,0.6-0.6,0.6h-3.5c-1.3,0-1.9,0.3-1.9,2v7.9c0,0.4-0.2,0.6-0.6,0.6h-2
		c-0.4,0-0.6-0.2-0.6-0.6v-12.3c0-0.4,0.2-0.6,0.6-0.6h2c0.4,0,0.6,0.2,0.6,0.6v1c0.6-1,1.6-1.6,3.5-1.6H189.4z"/>
	<path d="M190.8,210.8v-2.9c0-3.3,1.1-5.3,5-5.3h3.4c3.9,0,5,1.9,5,5.3v2.2c0,0.4-0.2,0.6-0.6,0.6H194v0.5c0,1.7,0.4,2,1.9,2h6.6
		c0.4,0,0.6,0.2,0.6,0.6v1.8c0,0.4-0.2,0.6-0.6,0.6h-6.7C191.9,216.1,190.8,214.2,190.8,210.8z M201,208.2v-0.6c0-1.6-0.4-2-1.9-2
		h-3.2c-1.5,0-1.9,0.4-1.9,2v0.6H201z"/>
</g>
</svg>
